<svg width="24" height="24" xmlns="http://www.w3.org/2000/svg"><g fill="#BBB" fill-rule="nonzero"><path d="M12 2.15c3.2 0 3.6 0 4.85.05 1.15.1 1.8.3 2.25.45.55.2.95.5 1.4.9.4.4.7.8.9 1.4.15.4.35 1.05.4 2.25.05 1.25.05 1.65.05 4.85 0 3.2 0 3.6-.05 4.85-.05 1.15-.25 1.8-.4 2.25-.2.55-.5.95-.9 1.4-.4.4-.8.7-1.4.9-.4.15-1.05.35-2.25.4-1.25.05-1.65.05-4.85.05-3.2 0-3.6 0-4.85-.05-1.15-.05-1.8-.25-2.25-.4-.55-.2-.95-.5-1.4-.9-.4-.4-.7-.8-.9-1.4-.1-.5-.3-1.15-.35-2.3C2.2 15.6 2.2 15.2 2.2 12c0-3.2 0-3.6.05-4.85.05-1.15.25-1.8.4-2.25.2-.55.5-.95.9-1.4.4-.4.8-.7 1.4-.9.4-.1 1.05-.3 2.2-.35 1.25-.1 1.65-.1 4.85-.1zM12 0C8.75 0 8.35 0 7.05.05 5.75.1 4.9.3 4.15.6 3.35.95 2.7 1.35 2 2 1.35 2.7.95 3.35.65 4.15.35 4.9.15 5.8.1 7.05 0 8.35 0 8.75 0 12s0 3.65.05 4.95c.05 1.3.25 2.15.55 2.9.35.8.75 1.45 1.4 2.15.65.65 1.35 1.1 2.15 1.4.75.3 1.65.5 2.9.55 1.3.05 1.7.05 4.95.05s3.65 0 4.95-.05c1.3-.05 2.15-.25 2.9-.55.8-.3 1.45-.7 2.15-1.4.65-.65 1.1-1.35 1.4-2.15.3-.75.5-1.65.55-2.9.05-1.3.05-1.7.05-4.95s0-3.65-.05-4.95c-.05-1.3-.25-2.15-.55-2.9-.35-.8-.75-1.45-1.4-2.15-.65-.65-1.35-1.1-2.15-1.4-.75-.3-1.65-.5-2.9-.55C15.65 0 15.25 0 12 0z"/><path d="M12 5.85C8.6 5.85 5.85 8.6 5.85 12c0 3.4 2.75 6.15 6.15 6.15 3.4 0 6.15-2.75 6.15-6.15 0-3.4-2.75-6.15-6.15-6.15zM12 16c-2.2 0-4-1.8-4-4s1.8-4 4-4 4 1.8 4 4-1.8 4-4 4z"/><circle cx="18.4" cy="5.6" r="1.45"/></g></svg>
