<svg width="24" height="24" xmlns="http://www.w3.org/2000/svg"><path d="M22.25 0H1.8C.8 0 0 .75 0 1.75v20.5C0 23.2.8 24 1.8 24h20.45c1 0 1.75-.8 1.75-1.75V1.75c0-1-.8-1.75-1.75-1.75zM7.15 20.45h-3.6V9H7.1v11.45h.05zm-1.8-13c-1.15 0-2.05-.9-2.05-2.05s.9-2.05 2.05-2.05 2.05.9 2.05 2.05c0 1.1-.9 2.05-2.05 2.05zm15.1 13H16.9v-5.6c0-1.35 0-3.05-1.85-3.05s-2.15 1.45-2.15 2.95v5.65H9.35V9h3.4v1.55h.05c.45-.9 1.65-1.85 3.35-1.85 3.6 0 4.25 2.35 4.25 5.45v6.3h.05z" fill="#BBB" fill-rule="nonzero"/></svg>
