<svg xmlns="http://www.w3.org/2000/svg" width="48" height="48" fill="none" viewBox="0 0 48 48">
    <path fill="#CAF1EF" fill-rule="evenodd"
        d="M48 24c0 13.254-10.745 24-24 24C10.746 48 0 37.254 0 24 0 10.745 10.746 0 24 0c13.255 0 24 10.745 24 24"
        clip-rule="evenodd" />
    <path fill="#007782" fill-rule="evenodd"
        d="M24 36s-10-3.6-10-12v-8.4L24 12l10 3.6V24c0 8.4-10 12-10 12" clip-rule="evenodd" />
    <path fill="#fff" fill-rule="evenodd"
        d="M23.202 27.791 18.5 23.152l1.613-1.59 3.089 3.048L28.887 19l1.613 1.59-7.298 7.201Z"
        clip-rule="evenodd" />
</svg>
